<?xml version="1.0" ?><svg enable-background="new 0 0 24 24" id="Layer_1" version="1.1" viewBox="0 0 24 24" xml:space="preserve" xmlns="http://www.w3.org/2000/svg" xmlns:xlink="http://www.w3.org/1999/xlink"><g><path d="M22,20.5H2   c-0.8284271,0-1.5-0.6715736-1.5-1.5V5c0-0.8284273,0.6715729-1.5,1.5-1.5h20c0.8284264,0,1.5,0.6715727,1.5,1.5v14   C23.5,19.8284264,22.8284264,20.5,22,20.5z" fill="none" stroke="#303C42" stroke-linecap="round" stroke-linejoin="round" stroke-miterlimit="10"/><g><path d="M6.3131747,17.9633751v-0.9155254c0-0.344841-0.2197061-0.5767708-0.5737042-0.5798073    c-0.1861477-0.0030518-0.3783998,0.0549221-0.5126772,0.2593822c-0.1007042-0.1617146-0.2594137-0.2593822-0.4821715-0.2593822    c-0.155642,0-0.3082166,0.0457668-0.4272332,0.2166691v-0.1800442H4v1.4587078h0.320425v-0.8087158    c0-0.2532787,0.1403971-0.3875561,0.3570504-0.3875561c0.2105646,0,0.3173885,0.1373291,0.3173885,0.3845043v0.8117676h0.320425    v-0.8087158c0-0.2532787,0.1464858-0.3875561,0.3570504-0.3875561c0.2166548,0,0.3204098,0.1373291,0.3204098,0.3845043v0.8117676    H6.3131747z M11.0555038,16.5046673h-0.5187817v-0.4424934h-0.320425v0.4424934H9.9202738v0.2899036h0.2960234v0.6652679    C10.2162971,17.7985611,10.3475218,18,10.7228699,18c0.1373291,0,0.2960081-0.0427456,0.3967123-0.1129284l-0.0915327-0.2716064    c-0.094615,0.0549374-0.1983862,0.082407-0.2807627,0.082407c-0.1586943,0-0.2105646-0.097683-0.2105646-0.2441235v-0.6591778    h0.5187817V16.5046673z M13.7623549,16.4680424c-0.1830969,0-0.3021288,0.0854588-0.3845053,0.2136173v-0.1769924h-0.3143358    v1.4587078h0.3173723v-0.817873c0-0.2410698,0.1037569-0.3753471,0.3112993-0.3753471    c0.0640659,0,0.1312122,0.0091553,0.1983414,0.0366249l0.0976524-0.2990761    C13.9179802,16.4802513,13.8264322,16.4680424,13.7623549,16.4680424L13.7623549,16.4680424z M9.6700468,16.6206169    c-0.1526051-0.1007042-0.3631697-0.1525745-0.5950842-0.1525745c-0.3692589,0-0.6072769,0.1769905-0.6072769,0.4668961    c0,0.2380486,0.1769915,0.3845329,0.5035057,0.4302998l0.1495371,0.021349    c0.1739397,0.0243874,0.2563467,0.0701847,0.2563467,0.1525764c0,0.1129112-0.1159801,0.177021-0.332634,0.177021    c-0.2197056,0-0.3783998-0.0701981-0.4852228-0.1526051L8.4096956,17.81077C8.5836344,17.9389267,8.8033714,18,9.0413895,18    c0.4211292,0,0.6652517-0.1983871,0.6652517-0.4760818c0-0.2563477-0.1922369-0.390625-0.5096102-0.4364052l-0.1495218-0.0213661    c-0.1373453-0.0182972-0.2471905-0.0457344-0.2471905-0.1433868c0-0.106823,0.1037264-0.1709175,0.2776957-0.1709175    c0.1861496,0,0.3661919,0.0702133,0.4547024,0.1251202L9.6700468,16.6206169z M18.1720352,16.4680424    c-0.1831131,0-0.3021145,0.0854588-0.3845062,0.2136173v-0.1769924h-0.3143196v1.4587078h0.317358v-0.817873    c0-0.2410698,0.1037712-0.3753471,0.3112698-0.3753471c0.0641079,0,0.1312542,0.0091553,0.1983871,0.0366249l0.0976505-0.2990761    C18.3276749,16.4802513,18.2361126,16.4680424,18.1720352,16.4680424L18.1720352,16.4680424z M14.0827637,17.2339821    C14.0827637,17.6765232,14.3910112,18,14.8609734,18c0.2197218,0,0.3661766-0.0488338,0.5248709-0.1739693l-0.1525745-0.2563477    c-0.1190166,0.0854588-0.2441378,0.1312256-0.3814659,0.1312256c-0.2532959-0.0030365-0.4394283-0.1861629-0.4394283-0.4669266    c0-0.2807159,0.1861324-0.4638271,0.4394283-0.4668789c0.1373281,0,0.2624493,0.0457649,0.3814659,0.1312389l0.1525745-0.256361    c-0.1586943-0.1251049-0.3051491-0.1739388-0.5248709-0.1739388    C14.3910112,16.4680424,14.0827637,16.7915192,14.0827637,17.2339821L14.0827637,17.2339821z M17.0551186,17.2339821v-0.7293148    h-0.3173752v0.1769924c-0.1007042-0.1312256-0.2532787-0.2136173-0.4608078-0.2136173    c-0.4089203,0-0.7293453,0.3204403-0.7293453,0.7659397C15.5475903,17.6795444,15.8680153,18,16.2769356,18    c0.2075291,0,0.3601036-0.0824223,0.4608078-0.2136478v0.1770229h0.3173752V17.2339821z M15.8741064,17.2339821    c0-0.2563305,0.1678476-0.4668789,0.442523-0.4668789c0.2624187,0,0.4394264,0.2013931,0.4394264,0.4668789    c0,0.2655182-0.1770077,0.4669266-0.4394264,0.4669266C16.041954,17.7009087,15.8741064,17.4903297,15.8741064,17.2339821    L15.8741064,17.2339821z M12.0442629,16.4680424c-0.427249,0-0.7263088,0.3112679-0.7263088,0.7659397    C11.3179541,17.6978722,11.6292229,18,12.0656281,18c0.2197208,0,0.4211292-0.0549526,0.5981226-0.2044907l-0.1556444-0.2349663    c-0.1220531,0.0976524-0.2776957,0.1525745-0.424181,0.1525745c-0.2044754,0-0.3906231-0.0946007-0.4363899-0.3570652h1.0833616    c0.0030518-0.0396481,0.0060873-0.0793247,0.0060873-0.1220703    C12.7339487,16.7793102,12.4531841,16.4680424,12.0442629,16.4680424L12.0442629,16.4680424z M12.0381441,16.7518425    c0.2044754,0,0.3357,0.1281719,0.3692579,0.3539982h-0.756815C11.6841602,16.8952599,11.8123188,16.7518425,12.0381441,16.7518425    L12.0381441,16.7518425z M20,17.2339821v-1.3152275h-0.3173885v0.7629051    c-0.1007042-0.1312256-0.2532787-0.2136173-0.4607906-0.2136173c-0.4089375,0-0.7293625,0.3204403-0.7293625,0.7659397    C18.4924583,17.6795444,18.8128834,18,19.2218208,18c0.2075119,0,0.3600864-0.0824223,0.4607906-0.2136478v0.1770229H20    V17.2339821z M18.8190041,17.2339821c0-0.2563305,0.1678352-0.4668789,0.4424801-0.4668789    c0.262434,0,0.4394245,0.2013931,0.4394245,0.4668789c0,0.2655182-0.1769905,0.4669266-0.4394245,0.4669266    C18.9868393,17.7009087,18.8190041,17.4903297,18.8190041,17.2339821L18.8190041,17.2339821z M8.1014786,17.2339821v-0.7293148    H7.7840905v0.1769924c-0.1007042-0.1312256-0.2532792-0.2136173-0.4608068-0.2136173    c-0.4089208,0-0.7293463,0.3204403-0.7293463,0.7659397C6.5939374,17.6795444,6.9143629,18,7.3232837,18    c0.2075276,0,0.3601027-0.0824223,0.4608068-0.2136478v0.1770229h0.3173881V17.2339821z M6.9204822,17.2339821    c0-0.2563305,0.1678367-0.4668789,0.4424787-0.4668789c0.2624354,0,0.4394269,0.2013931,0.4394269,0.4668789    c0,0.2655182-0.1769915,0.4669266-0.4394269,0.4669266C7.0883188,17.7009087,6.9204822,17.4903297,6.9204822,17.2339821z" fill="#303C42" id="XMLID_1775_"/></g><circle cx="8.75" cy="10.75" fill="none" r="4.25" stroke="#303C42" stroke-linecap="round" stroke-linejoin="round" stroke-miterlimit="10"/><circle cx="15.25" cy="10.75" fill="none" r="4.25" stroke="#303C42" stroke-linecap="round" stroke-linejoin="round" stroke-miterlimit="10"/></g><g/><g/><g/><g/><g/><g/><g/><g/><g/><g/><g/><g/><g/><g/><g/></svg>